<svg xmlns="http://www.w3.org/2000/svg" viewBox="0 0 2000 600" role="img" aria-label="Andacity logo">
<title>Andacity</title>
<defs>
  <linearGradient id="orbitShade" x1="120" y1="180" x2="580" y2="420" gradientUnits="userSpaceOnUse">
    <stop offset="0" stop-color="#14B8A6"/>
    <stop offset="1" stop-color="#0EA5A0"/>
  </linearGradient>
  <clipPath id="frontBand" clipPathUnits="userSpaceOnUse">
    <rect x="0" y="250" width="700" height="80"/>
  </clipPath>
</defs>

<g>
  <g transform="rotate(-30 350 290)" opacity="0.55">
    <path fill="url(#orbitShade)" fill-rule="evenodd" d="M 610 290 A 260 120 0 1 0 90 290 A 260 120 0 1 0 610 290 Z
      M 560 290 A 210 90 0 1 1 140 290 A 210 90 0 1 1 560 290 Z"/>
  </g>
  <circle cx="350" cy="290" r="115" fill="#F59E0B"/>
  <g clip-path="url(#frontBand)" transform="rotate(-30 350 290)">
    <path fill="url(#orbitShade)" fill-rule="evenodd" d="M 610 290 A 260 120 0 1 0 90 290 A 260 120 0 1 0 610 290 Z
      M 560 290 A 210 90 0 1 1 140 290 A 210 90 0 1 1 560 290 Z"/>
  </g>
</g>
<text x="605" y="380" font-family="Open Sans, sans-serif" font-weight="700" font-size="240" letter-spacing="-3.8">
  <tspan fill="#0F172A">Anda</tspan><tspan fill="#14B8A6">city</tspan>
</text>
</svg>